:SAMPLES-PER-SECOND 30
:FULLY-SPECIFIED
:DEGREES
419
root  -0.248366 39.1399 -11.3035 -177.926 16.6238 178.978
RightUpLeg  -18.6234 6.08212 3.50142
RightLeg  8.8998 46.5955 2.05609
RightFoot  -3.68266 -0.828464 11.8841
RightToes  5.23868e-010 0 -3.6325e-017
Spine  9.48854 -1.56437 -1.14044
Spine1  6.92524 -2.20222 2.2621
HEad  -14.3569 -42.3348 13.6819
LeftShoulder1  -0.0446862 3.62676 -30.0305
LeftArm  1.79214 23.8527 -34.1045
LeftForeArm  12.8718 -25.2114 -4.71189
LeftHand  -0.0927529 2.83854 3.57702
RightShoulder  -0.877257 -6.10642 27.1185
RightArm  16.736 5.1139 47.4404
RightForeArm  3.00996 37.5258 8.43299
RightHand  -0.7244 4.27287 -8.96727
LeftUpLeg  -3.99361 -4.11911 3.22648
LeftLeg  17.5532 -9.43067 -2.23867
LeftFoot  -15.413 0.141776 1.3709
LeftToes  -4.9204e-010 1.02043e-011 -1.81609e-011
420
root  -0.75432 39.2533 -10.89 -177.672 23.3483 179.022
RightUpLeg  -19.4302 2.12978 2.98861
RightLeg  5.41187 31.8673 -0.0754361
RightFoot  -5.66372 -0.541368 10.3882
RightToes  5.23868e-010 0 -3.6325e-017
Spine  9.9207 -1.74044 -2.38763
Spine1  7.11695 -2.50107 2.37192
HEad  -14.0073 -40.5619 14.0184
LeftShoulder1  0.000825915 3.50139 -29.595
LeftArm  3.14295 22.9704 -33.8546
LeftForeArm  13.455 -23.1117 -4.33038
LeftHand  -0.0504843 2.72378 1.62001
RightShoulder  -0.877841 -6.08573 27.4129
RightArm  14.1818 3.29399 46.988
RightForeArm  3.07183 36.7432 8.19729
RightHand  -0.697142 3.83428 -9.00777
LeftUpLeg  -3.63671 1.99473 2.92309
LeftLeg  16.4147 -9.20851 -2.10687
LeftFoot  -14.6998 0.112002 0.825776
LeftToes  -4.9204e-010 1.02043e-011 -1.81609e-011
421
root  -1.20657 39.2995 -10.6607 -177.184 30.8573 179.235
RightUpLeg  -19.9635 -0.324361 2.07025
RightLeg  3.5035 16.2312 0.123431
RightFoot  -8.44759 -0.347387 11.4499
RightToes  5.23868e-010 0 -3.6325e-017
Spine  9.57593 -1.59747 -2.27254
Spine1  7.15832 -2.03235 1.25207
HEad  -13.2397 -38.315 13.0682
LeftShoulder1  -0.0575961 3.66301 -30.1032
LeftArm  3.15868 21.8928 -33.1832
LeftForeArm  14.8383 -21.1061 -4.37809
LeftHand  -0.0203852 2.7652 0.504864
RightShoulder  -0.869923 -6.03335 27.8008
RightArm  12.3575 1.72889 45.875
RightForeArm  2.45558 34.2227 7.51216
RightHand  -0.552161 2.87084 -7.97704
LeftUpLeg  -3.4303 5.23733 2.30527
LeftLeg  15.8607 -5.21527 -1.06277
LeftFoot  -14.5645 0.100157 0.452575
LeftToes  -4.9204e-010 1.02043e-011 -1.81609e-011
422
root  -1.59083 39.4643 -10.4786 -176.245 38.7351 -179.885
RightUpLeg  -21.1714 -1.42865 1.92968
RightLeg  3.90976 8.36665 1.09592
RightFoot  -7.28692 -0.335445 8.04
RightToes  5.23868e-010 0 -3.6325e-017
Spine  9.25963 -1.30642 -1.06126
Spine1  6.99101 -1.2958 -0.182363
HEad  -12.6137 -35.5972 11.9917
LeftShoulder1  -0.108052 3.80103 -30.1968
LeftArm  2.20591 21.8057 -33.3662
LeftForeArm  14.6012 -19.9897 -4.6544
LeftHand  -0.0468547 4.10189 2.38495
RightShoulder  -0.831833 -5.92479 27.7549
RightArm  11.5227 0.651355 45.1889
RightForeArm  0.700293 30.2959 6.56865
RightHand  -0.48314 2.0576 -7.7088
LeftUpLeg  -2.59884 7.60446 2.27068
LeftLeg  13.9652 0.217633 0.0445867
LeftFoot  -13.6923 0.087723 0.269178
LeftToes  -4.9204e-010 1.02043e-011 -1.81609e-011
423
root  -1.85719 39.5511 -10.3333 -175.764 45.8567 -179.364
RightUpLeg  -22.5952 -2.68568 1.45092
RightLeg  5.98157 5.10746 1.69089
RightFoot  -6.56925 -0.325413 6.71043
RightToes  5.23868e-010 0 -3.6325e-017
Spine  9.61359 -1.22665 -1.19412
Spine1  6.37323 -1.0836 -0.669224
HEad  -12.1813 -31.8838 11.0744
LeftShoulder1  -0.170713 3.97032 -30.47
LeftArm  0.751341 22.0204 -33.7873
LeftForeArm  15.0701 -19.3087 -4.7561
LeftHand  -0.0390967 3.28791 1.22954
RightShoulder  -0.802503 -5.84524 27.6606
RightArm  13.1536 1.26077 44.491
RightForeArm  -3.63632 24.477 5.50895
RightHand  -0.544061 2.55484 -8.16004
LeftUpLeg  -1.46325 9.13035 2.33326
LeftLeg  12.4433 5.59626 0.153007
LeftFoot  -13.1649 0.0763304 -0.173504
LeftToes  -4.9204e-010 1.02043e-011 -1.81609e-011
424
root  -1.98118 39.6299 -10.2385 -175.672 51.253 -178.561
RightUpLeg  -23.0898 -5.10055 1.08224
RightLeg  8.14766 3.64894 1.94339
RightFoot  -6.19935 -0.326222 6.3121
RightToes  5.23868e-010 0 -3.6325e-017
Spine  10.3559 -1.58787 -1.53235
Spine1  5.93493 -1.61933 -0.269026
HEad  -11.4593 -28.1042 10.0023
LeftShoulder1  -0.153039 3.92097 -30.5945
LeftArm  1.67405 21.9181 -34.0926
LeftForeArm  12.7667 -18.8411 -5.08024
LeftHand  -0.0486852 3.72172 2.08606
RightShoulder  -0.785069 -5.81768 27.289
RightArm  13.9109 1.97994 43.7945
RightForeArm  -5.67623 18.5074 5.0974
RightHand  -0.500112 2.43441 -7.61623
LeftUpLeg  0.34579 9.29136 2.69852
LeftLeg  10.8799 10.5623 0.124956
LeftFoot  -12.6419 0.068181 -0.670874
LeftToes  -4.9204e-010 1.02043e-011 -1.81609e-011
425
root  -1.99431 39.6381 -10.185 -175.544 55.8019 -178.242
RightUpLeg  -24.2341 -8.47664 0.444607
RightLeg  10.8705 4.1763 1.89603
RightFoot  -6.28047 -0.293922 5.67358
RightToes  5.23868e-010 0 -3.6325e-017
Spine  10.2984 -1.90264 -2.19308
Spine1  5.89514 -2.24168 0.690366
HEad  -10.8776 -24.8432 8.914
LeftShoulder1  -0.0981346 3.76823 -30.9725
LeftArm  0.58695 20.7494 -34.7729
LeftForeArm  14.5849 -17.7181 -5.35885
LeftHand  -0.0515574 3.34957 1.86751
RightShoulder  -0.714568 -5.65528 26.5568
RightArm  10.6799 1.43732 42.6914
RightForeArm  -4.09476 14.0643 5.44765
RightHand  -0.347321 0.761734 -6.60765
LeftUpLeg  1.48794 9.39704 2.56322
LeftLeg  9.9679 14.8608 0.223261
LeftFoot  -12.3836 0.0632993 -1.19403
LeftToes  -4.9204e-010 1.02043e-011 -1.81609e-011
426
root  -1.87884 39.6164 -10.1383 -175.38 59.7666 -177.762
RightUpLeg  -24.9675 -10.8429 -0.320573
RightLeg  13.027 3.79853 1.35423
RightFoot  -6.05178 -0.263106 4.82858
RightToes  5.23868e-010 0 -3.6325e-017
Spine  10.4861 -2.25042 -1.95222
Spine1  5.51855 -2.59497 0.647628
HEad  -10.1628 -22.2274 7.9922
LeftShoulder1  -0.13278 3.86309 -30.8342
LeftArm  0.542088 18.9599 -35.5099
LeftForeArm  16.0883 -17.3072 -5.5013
LeftHand  -0.0303964 4.01356 0.843225
RightShoulder  -0.776742 -5.8161 26.9631
RightArm  8.68898 0.326754 40.5049
RightForeArm  -3.10266 11.0636 5.43177
RightHand  -0.223285 -0.472589 -5.3095
LeftUpLeg  2.62436 9.71009 2.60067
LeftLeg  9.521 18.2662 0.476162
LeftFoot  -12.3661 0.0568539 -1.94296
LeftToes  -4.9204e-010 1.02043e-011 -1.81609e-011
427
root  -1.66541 39.5916 -10.0866 -175.386 62.9987 -177.421
RightUpLeg  -25.1969 -12.1916 -1.6735
RightLeg  14.3985 2.85034 0.837162
RightFoot  -5.48975 -0.203053 3.22766
RightToes  5.23868e-010 0 -3.6325e-017
Spine  10.3436 -2.55104 -1.67233
Spine1  5.78908 -2.99513 0.926767
HEad  -9.32399 -19.7254 7.0723
LeftShoulder1  -0.160154 3.93907 -30.6816
LeftArm  0.962157 16.9991 -36.5155
LeftForeArm  16.2613 -17.803 -5.37478
LeftHand  -0.0444682 3.99373 2.04759
RightShoulder  -0.807675 -5.89851 27.1133
RightArm  7.82167 -1.68615 38.2361
RightForeArm  -4.86446 9.96588 5.23584
RightHand  -0.308693 0.709326 -5.90637
LeftUpLeg  3.92261 9.987 2.72658
LeftLeg  8.98755 20.9759 0.51964
LeftFoot  -12.3125 0.0508936 -2.69304
LeftToes  -4.9204e-010 1.02043e-011 -1.81609e-011
428
root  -1.3439 39.5341 -10.0087 -175.544 65.9714 -177.311
RightUpLeg  -24.6448 -12.521 -3.47924
RightLeg  13.947 2.35667 0.720719
RightFoot  -5.36821 -0.190963 2.95666
RightToes  5.23868e-010 0 -3.6325e-017
Spine  10.2088 -2.71415 -1.54258
Spine1  5.76466 -3.30684 1.41588
HEad  -8.30242 -17.5739 6.1204
LeftShoulder1  -0.2188 4.09693 -30.7037
LeftArm  1.64651 15.3769 -37.3078
LeftForeArm  15.8242 -19.114 -4.93311
LeftHand  -0.0524808 3.42513 2.09893
RightShoulder  -0.771583 -5.78794 27.1496
RightArm  7.81612 -4.72631 36.1933
RightForeArm  -8.4194 9.88841 5.19042
RightHand  -0.424458 1.54908 -7.27822
LeftUpLeg  5.13749 10.1328 2.78488
LeftLeg  8.77523 23.4359 0.718549
LeftFoot  -12.4066 0.039957 -3.69379
LeftToes  -4.9204e-010 1.02043e-011 -1.81609e-011
429
root  -0.918949 39.451 -9.88318 -176.195 68.7062 -177.799
RightUpLeg  -23.7254 -13.0099 -5.13951
RightLeg  12.4873 1.50233 0.705417
RightFoot  -5.32448 -0.179907 2.7315
RightToes  5.23868e-010 0 -3.6325e-017
Spine  9.96382 -2.68339 -1.98512
Spine1  6.01946 -3.58265 2.48517
HEad  -7.41728 -15.8246 5.11042
LeftShoulder1  -0.325696 4.37595 -31.2284
LeftArm  2.34195 13.4699 -37.7059
LeftForeArm  14.4783 -20.9425 -4.48254
LeftHand  -0.0593936 3.09655 2.23781
RightShoulder  -0.800877 -5.85086 27.5034
RightArm  7.58351 -7.35193 34.1633
RightForeArm  -8.75139 10.0114 4.90671
RightHand  -0.419775 2.26878 -6.48677
LeftUpLeg  6.41612 10.2597 2.76069
LeftLeg  8.53175 25.678 0.800783
LeftFoot  -12.4711 0.0296833 -4.59016
LeftToes  -4.9204e-010 1.02043e-011 -1.81609e-011
430
root  -0.420042 39.3747 -9.72147 -176.74 71.1188 -178.236
RightUpLeg  -22.5138 -13.8757 -6.41245
RightLeg  10.714 -1.41758 0.548486
RightFoot  -4.83039 -0.155601 2.16299
RightToes  5.23868e-010 0 -3.6325e-017
Spine  9.91346 -2.78837 -1.60576
Spine1  5.96145 -3.74787 2.70013
HEad  -6.472 -14.6484 4.20925
LeftShoulder1  -0.323996 4.36995 -31.271
LeftArm  1.46908 12.4276 -38.1476
LeftForeArm  13.8305 -23.4072 -4.31118
LeftHand  -0.0737445 2.79709 2.73438
RightShoulder  -0.83529 -5.93028 27.8227
RightArm  7.1424 -10.3926 33.2329
RightForeArm  -11.6451 9.83186 4.69584
RightHand  -0.614582 4.19709 -7.71773
LeftUpLeg  7.79914 10.4429 2.94922
LeftLeg  8.09401 27.4614 0.705602
LeftFoot  -12.4941 0.0174509 -5.67073
LeftToes  -4.9204e-010 1.02043e-011 -1.81609e-011
431
root  0.175106 39.2481 -9.50674 -177.313 73.3204 -178.88
RightUpLeg  -21.6803 -14.6066 -7.20208
RightLeg  9.94061 -5.84998 0.0770717
RightFoot  -4.38379 -0.0652163 0.584701
RightToes  5.23868e-010 0 -3.6325e-017
Spine  9.57042 -2.98224 -1.33059
Spine1  6.27892 -4.00321 2.87922
HEad  -5.90175 -13.4316 3.84402
LeftShoulder1  -0.378136 4.51506 -31.2571
LeftArm  -0.718017 11.4439 -38.5934
LeftForeArm  14.6126 -26.0111 -4.79746
LeftHand  -0.0875674 2.97455 3.62328
RightShoulder  -0.832736 -5.92322 27.8144
RightArm  6.14213 -13.3999 33.5249
RightForeArm  -12.4479 9.75595 4.26446
RightHand  -0.537149 3.0228 -7.63428
LeftUpLeg  8.95525 10.8132 3.40981
LeftLeg  8.1415 28.4929 0.542314
LeftFoot  -12.8468 -0.0124544 -6.7944
LeftToes  -4.9204e-010 1.02043e-011 -1.81609e-011
